<?xml version="1.0" standalone="no"?>
<!DOCTYPE svg PUBLIC "-//W3C//DTD SVG 1.0//EN" "http://www.w3.org/TR/2001/REC-SVG-20010904/DTD/svg10.dtd">
<svg xmlns="http://www.w3.org/2000/svg" xmlns:xlink="http://www.w3.org/1999/xlink" id="body_1" width="41" height="31">

<g transform="matrix(0.15003243 0 0 0.15003243 5.000001 -0)">
	<g>
		<g>
			<g>
                <path d="M155.287 58.38C 148.584 51.191 140.63701 45.605003 131.667 41.777C 130.36801 41.225002 128.867 41.486 127.837006 42.449C 126.80301 43.412003 126.437004 44.892002 126.897 46.226C 135.02501 69.67 128.55101 95.75 110.412 112.66701C 92.26601 129.585 65.798004 134.224 42.982002 124.479004C 41.694004 123.929 40.182003 124.188 39.152 125.151C 38.118 126.114 37.752 127.594 38.212 128.928C 41.409 138.146 46.427002 146.463 53.13 153.648C 65.851 167.291 83.126 175.165 101.770004 175.816C 102.606 175.846 103.438 175.859 104.270004 175.859C 121.998 175.859 138.81 169.24799 151.841 157.095C 165.488 144.371 173.358 127.097 174.009 108.451996C 174.658 89.807 168.011 72.025 155.287 58.38zM166.883 108.203C 166.29799 124.943 159.228 140.45401 146.978 151.878C 134.728 163.30101 118.755 169.30301 102.019 168.68701C 85.276 168.10402 69.767 161.03502 58.344997 148.78302C 54.135 144.27202 50.666996 139.26402 47.982 133.83601C 71.451996 140.70801 97.10899 134.82301 115.272995 117.88402C 133.44 100.943016 141.101 75.75401 135.881 51.86402C 141.111 54.92102 145.86499 58.73102 150.071 63.24602C 161.496 75.496 167.465 91.464 166.883 108.203z" stroke="none" fill="#000000" fill-rule="nonzero" />
                <path d="M167.607 163.757C 166.21399 162.364 163.958 162.364 162.565 163.757C 161.17201 165.15001 161.172 167.406 162.565 168.79901L162.565 168.79901L170.128 176.36201C 170.824 177.05801 171.737 177.40701 172.649 177.40701C 173.561 177.40701 174.474 177.059 175.17 176.36201C 176.563 174.96901 176.563 172.71301 175.17 171.32L175.17 171.32L167.607 163.757z" stroke="none" fill="#000000" fill-rule="nonzero" />
                <path d="M170.128 30.259L162.565 37.824C 161.172 39.217003 161.172 41.475002 162.565 42.866C 163.261 43.562 164.174 43.911 165.086 43.911C 165.998 43.911 166.911 43.563 167.607 42.866L167.607 42.866L175.17 35.301003C 176.563 33.908 176.563 31.650002 175.17 30.259003C 173.777 28.866 171.521 28.866 170.128 30.259z" stroke="none" fill="#000000" fill-rule="nonzero" />
                <path d="M103.311 188.793C 101.34 188.793 99.744995 190.39 99.744995 192.359L99.744995 192.359L99.744995 203.056C 99.744995 205.025 101.34 206.622 103.311 206.622C 105.282 206.622 106.877 205.025 106.877 203.056L106.877 203.056L106.877 192.359C 106.877 190.39 105.282 188.793 103.311 188.793z" stroke="none" fill="#000000" fill-rule="nonzero" />
                <path d="M201.371 99.745L190.674 99.745C 188.703 99.745 187.108 101.342 187.108 103.311005C 187.108 105.28001 188.703 106.87701 190.674 106.87701L190.674 106.87701L201.371 106.87701C 203.342 106.87701 204.937 105.28001 204.937 103.311005C 204.937 101.342 203.341 99.745 201.371 99.745z" stroke="none" fill="#000000" fill-rule="nonzero" />
                <path d="M39.015 42.866C 39.711 43.562 40.624 43.911 41.536 43.911C 42.447998 43.911 43.361 43.563 44.057 42.866C 45.45 41.475002 45.45 39.217003 44.057 37.824L44.057 37.824L36.494 30.259C 35.100998 28.866001 32.845 28.866001 31.452 30.259C 30.059 31.650002 30.059 33.908 31.452 35.301003L31.452 35.301003L39.015 42.866z" stroke="none" fill="#000000" fill-rule="nonzero" />
                <path d="M39.015 163.757L31.452 171.32C 30.059 172.71301 30.059 174.96901 31.452 176.362C 32.148 177.058 33.061 177.407 33.973 177.407C 34.885 177.407 35.798 177.05899 36.494 176.362L36.494 176.362L44.057 168.799C 45.45 167.40599 45.45 165.15 44.057 163.75699C 42.664 162.364 40.408 162.364 39.015 163.757z" stroke="none" fill="#000000" fill-rule="nonzero" />
                <path d="M103.311 17.829C 105.282 17.829 106.877 16.232 106.877 14.2630005L106.877 14.2630005L106.877 3.566C 106.877 1.597 105.282 0 103.311 0C 101.34 0 99.744995 1.597 99.744995 3.566L99.744995 3.566L99.744995 14.263C 99.745 16.232 101.34 17.829 103.311 17.829z" stroke="none" fill="#000000" fill-rule="nonzero" />
                <path d="M15.949 99.745L5.251 99.745C 3.28 99.745 1.685 101.342 1.685 103.311005C 1.685 105.28001 3.28 106.87701 5.251 106.87701L5.251 106.87701L15.948 106.87701C 17.919 106.87701 19.514 105.28001 19.514 103.311005C 19.514 101.342 17.919 99.745 15.949 99.745z" stroke="none" fill="#000000" fill-rule="nonzero" />
			</g>
		</g>
	</g>
	<g>
	</g>
	<g>
	</g>
	<g>
	</g>
	<g>
	</g>
	<g>
	</g>
	<g>
	</g>
	<g>
	</g>
	<g>
	</g>
	<g>
	</g>
	<g>
	</g>
	<g>
	</g>
	<g>
	</g>
	<g>
	</g>
	<g>
	</g>
	<g>
	</g>
</g>
</svg>