<?xml version="1.0" standalone="no"?>
<!DOCTYPE svg PUBLIC "-//W3C//DTD SVG 1.0//EN" "http://www.w3.org/TR/2001/REC-SVG-20010904/DTD/svg10.dtd">
<svg xmlns="http://www.w3.org/2000/svg" xmlns:xlink="http://www.w3.org/1999/xlink" id="body_1" width="41" height="31">

<g transform="matrix(0.060546048 0 0 0.060546048 4.999999 -0)">
	<g>
		<g>
			<g>
                <path d="M314.788 114.106C 315.85498 114.55 316.964 114.763 318.048 114.763C 321.402 114.763 324.576 112.775 325.941 109.489L325.941 109.489L338.997 77.940994C 340.797 73.589 338.732 68.59699 334.372 66.79599C 330.02002 64.99499 325.028 67.06099 323.22702 71.42099L323.22702 71.42099L310.17102 102.95999C 308.37 107.313 310.436 112.305 314.788 114.106z" stroke="none" fill="#000000" fill-rule="nonzero" />
                <path d="M256.001 119.473C 180.72 119.473 119.468 180.725 119.468 256.006C 119.468 331.28702 180.72 392.539 256.001 392.539C 331.29102 392.539 392.534 331.287 392.534 256.00598C 392.535 180.725 331.291 119.473 256.001 119.473zM256.001 375.473C 190.132 375.473 136.534 321.884 136.534 256.00598C 136.534 190.12898 190.13199 136.53897 256.001 136.53897C 321.878 136.53897 375.46802 190.12798 375.46802 256.00598C 375.468 321.884 321.879 375.473 256.001 375.473z" stroke="none" fill="#000000" fill-rule="nonzero" />
                <path d="M340.934 51.044C 341.992 51.479 343.093 51.691998 344.177 51.691998C 347.531 51.691998 350.714 49.694996 352.07 46.392998L352.07 46.392998L366.295 11.781998C 368.087 7.4209976 366.005 2.4379978 361.644 0.645998C 357.29202 -1.155002 352.30002 0.93599796 350.50803 5.296998L350.50803 5.296998L336.28302 39.907997C 334.5 44.269 336.573 49.252 340.934 51.044z" stroke="none" fill="#000000" fill-rule="nonzero" />
                <path d="M159.95 46.394C 161.315 49.688 164.48999 51.685 167.85199 51.685C 168.92699 51.685 170.02798 51.48 171.09499 51.037003C 175.44699 49.245003 177.52899 44.261 175.73698 39.901L175.73698 39.901L161.495 5.297C 159.70299 0.9359999 154.728 -1.1540003 150.359 0.6459999C 145.99799 2.447 143.92499 7.43 145.708 11.782L145.708 11.782L159.95 46.394z" stroke="none" fill="#000000" fill-rule="nonzero" />
                <path d="M256.001 102.407C 260.72 102.407 264.534 98.584 264.534 93.874L264.534 93.874L264.534 34.14C 264.534 29.43 260.72 25.606998 256.001 25.606998C 251.291 25.606998 247.468 29.429998 247.468 34.14L247.468 34.14L247.468 93.873C 247.468 98.584 251.291 102.407 256.001 102.407z" stroke="none" fill="#000000" fill-rule="nonzero" />
                <path d="M173.015 77.95L186.08 109.489C 187.445 112.774 190.62 114.754 193.965 114.754C 195.05699 114.754 196.16699 114.541 197.233 114.104996C 201.585 112.296 203.65 107.30399 201.85 102.951996L201.85 102.951996L188.77701 71.412994C 186.968 67.061 181.98401 64.995995 177.632 66.796C 173.271 68.606 171.206 73.589 173.015 77.95z" stroke="none" fill="#000000" fill-rule="nonzero" />
                <path d="M418.135 247.473C 413.42502 247.473 409.60202 251.296 409.60202 256.006C 409.60202 260.716 413.42502 264.539 418.135 264.539L418.135 264.539L486.402 264.539C 491.121 264.539 494.935 260.716 494.935 256.006C 494.935 251.296 491.121 247.473 486.402 247.473L486.402 247.473L418.135 247.473z" stroke="none" fill="#000000" fill-rule="nonzero" />
                <path d="M138.335 148.64C 140.00801 150.313 142.184 151.14 144.36801 151.14C 146.55202 151.14 148.73701 150.312 150.40102 148.64C 153.73701 145.312 153.73701 139.91 150.40102 136.574L150.40102 136.574L102.13602 88.309006C 98.79902 84.97301 93.40602 84.97301 90.070015 88.309006C 86.73302 91.63701 86.73302 97.039 90.070015 100.37501L90.070015 100.37501L138.335 148.64z" stroke="none" fill="#000000" fill-rule="nonzero" />
                <path d="M468.865 176.373C 469.949 176.373 471.041 176.168 472.108 175.733L472.108 175.733L506.719 161.49901C 511.07098 159.707 513.153 154.71501 511.361 150.363C 509.577 146.00201 504.585 143.912 500.225 145.712L500.225 145.712L465.614 159.946C 461.26202 161.738 459.18002 166.73 460.97202 171.082C 462.329 174.385 465.512 176.373 468.865 176.373z" stroke="none" fill="#000000" fill-rule="nonzero" />
                <path d="M397.911 197.229C 399.276 200.52301 402.45102 202.503 405.79602 202.503C 406.88803 202.503 407.99802 202.29001 409.06403 201.84601L409.06403 201.84601L440.59503 188.781C 444.94702 186.98001 447.02103 181.988 445.21204 177.628C 443.40305 173.276 438.40204 171.211 434.06705 173.011L434.06705 173.011L402.52805 186.084C 398.175 187.885 396.11 192.877 397.911 197.229z" stroke="none" fill="#000000" fill-rule="nonzero" />
                <path d="M367.634 148.64C 369.307 150.313 371.483 151.14 373.667 151.14C 375.852 151.14 378.03598 150.312 379.69998 148.64L379.69998 148.64L421.93997 106.409C 425.26797 103.072 425.26797 97.671 421.93997 94.342995C 418.60297 91.006 413.20197 91.006 409.87396 94.342995L409.87396 94.342995L367.63397 136.57399C 364.307 139.911 364.307 145.312 367.634 148.64z" stroke="none" fill="#000000" fill-rule="nonzero" />
                <path d="M311.733 170.084C 307.774 167.515 302.491 168.633 299.923 172.584C 297.355 176.535 298.48102 181.826 302.432 184.386C 315.036 192.578 325.293 203.97 332.10202 217.33301C 333.61203 220.294 336.60803 221.992 339.71402 221.992C 341.01102 221.992 342.334 221.69301 343.58002 221.06201C 347.778 218.92001 349.44202 213.783 347.30902 209.585C 339.142 193.56 326.837 179.898 311.733 170.084z" stroke="none" fill="#000000" fill-rule="nonzero" />
                <path d="M352.036 465.577C 350.21802 461.233 345.21802 459.194 340.87402 460.995C 336.52203 462.813 334.47403 467.813 336.28302 472.165L336.28302 472.165L350.52502 506.23C 351.89902 509.49802 355.07303 511.478 358.41003 511.478C 359.50204 511.478 360.62003 511.26498 361.69504 510.812C 366.03802 508.99402 368.09503 503.99402 366.27704 499.65002L366.27704 499.65002L352.036 465.577z" stroke="none" fill="#000000" fill-rule="nonzero" />
                <path d="M379.701 365.865C 376.373 362.537 370.97098 362.537 367.63498 365.865C 364.30698 369.202 364.30698 374.603 367.63498 377.94L367.63498 377.94L415.908 426.204C 417.572 427.877 419.757 428.704 421.94098 428.704C 424.11697 428.704 426.30197 427.876 427.97397 426.204C 431.30197 422.876 431.30197 417.474 427.97397 414.138L427.97397 414.138L379.701 365.865z" stroke="none" fill="#000000" fill-rule="nonzero" />
                <path d="M338.997 434.072L325.932 402.516C 324.12302 398.173 319.14 396.09 314.779 397.9C 310.427 399.70898 308.362 404.701 310.162 409.05298L310.162 409.05298L323.227 440.60098C 324.59198 443.886 327.767 445.87497 331.12 445.87497C 332.204 445.87497 333.305 445.66196 334.38 445.21796C 338.732 443.416 340.797 438.424 338.997 434.072z" stroke="none" fill="#000000" fill-rule="nonzero" />
                <path d="M197.241 397.907C 192.88 396.08902 187.888 398.17203 186.088 402.52402L186.088 402.52402L173.015 434.07202C 171.206 438.424 173.271 443.41602 177.632 445.217C 178.699 445.661 179.808 445.87402 180.892 445.87402C 184.246 445.87402 187.42 443.894 188.777 440.60004L188.777 440.60004L201.859 409.05203C 203.658 404.7 201.593 399.708 197.241 397.907z" stroke="none" fill="#000000" fill-rule="nonzero" />
                <path d="M256.001 409.607C 251.291 409.607 247.468 413.43 247.468 418.13998L247.468 418.13998L247.468 486.40698C 247.468 491.11697 251.291 494.93997 256.001 494.93997C 260.72 494.93997 264.534 491.11697 264.534 486.40698L264.534 486.40698L264.534 418.14C 264.535 413.43 260.72 409.607 256.001 409.607z" stroke="none" fill="#000000" fill-rule="nonzero" />
                <path d="M440.594 323.232L409.055 310.167C 404.694 308.366 399.711 310.423 397.90198 314.784C 396.10098 319.136 398.167 324.128 402.51898 325.929L402.51898 325.929L434.067 339.00198C 435.13397 339.44598 436.23398 339.659 437.327 339.659C 440.672 339.659 443.846 337.671 445.212 334.385C 447.02 330.033 444.947 325.041 440.594 323.232z" stroke="none" fill="#000000" fill-rule="nonzero" />
                <path d="M506.711 350.513L472.108 336.296C 467.756 334.495 462.764 336.586 460.97202 340.947C 459.18002 345.29898 461.26202 350.28198 465.62302 352.074L465.62302 352.074L500.226 366.299C 501.28403 366.734 502.385 366.93903 503.46902 366.93903C 506.82303 366.93903 510.006 364.95102 511.36203 361.64804C 513.153 357.289 511.071 352.305 506.711 350.513z" stroke="none" fill="#000000" fill-rule="nonzero" />
                <path d="M171.069 460.969C 166.717 459.177 161.725 461.259 159.933 465.611L159.933 465.611L145.708 500.231C 143.92499 504.59198 145.99799 509.57498 150.359 511.36697C 151.41699 511.80197 152.51799 512.00696 153.60199 512.00696C 156.956 512.00696 160.13799 510.01895 161.495 506.71597L161.495 506.71597L175.72 472.10498C 177.512 467.744 175.43 462.761 171.069 460.969z" stroke="none" fill="#000000" fill-rule="nonzero" />
                <path d="M5.292 161.5L39.912 175.725C 40.969997 176.16 42.071 176.365 43.146 176.365C 46.508 176.365 49.691 174.377 51.048 171.074C 52.84 166.71301 50.758 161.73001 46.397 159.938L46.397 159.938L11.777 145.713C 7.4340005 143.912 2.4330006 146.00299 0.64100075 150.364C -1.142 154.724 0.932 159.708 5.292 161.5z" stroke="none" fill="#000000" fill-rule="nonzero" />
                <path d="M25.601 247.473C 20.890999 247.473 17.068 251.296 17.068 256.006C 17.068 260.716 20.891 264.539 25.601002 264.539L25.601002 264.539L93.868 264.539C 98.587 264.539 102.40099 260.716 102.40099 256.006C 102.40099 251.296 98.58699 247.473 93.868 247.473L93.868 247.473L25.601 247.473z" stroke="none" fill="#000000" fill-rule="nonzero" />
                <path d="M71.408 188.781L102.95599 201.84601C 104.022995 202.29001 105.131996 202.503 106.215996 202.503C 109.56999 202.503 112.743996 200.515 114.101 197.229C 115.909996 192.877 113.845 187.88501 109.484 186.084L109.484 186.084L77.945 173.011C 73.576 171.21 68.601 173.284 66.792 177.628C 64.991 181.988 67.056 186.98 71.408 188.781z" stroke="none" fill="#000000" fill-rule="nonzero" />
                <path d="M39.903 336.28L5.292 350.513C 0.93099976 352.305 -1.1420002 357.297 0.6409998 361.649C 1.9979998 364.951 5.1809998 366.93997 8.542999 366.93997C 9.617999 366.93997 10.719 366.735 11.785999 366.29996L11.785999 366.29996L46.389 352.05795C 50.75 350.26596 52.832 345.28296 51.04 340.92197C 49.247 336.57 44.272 334.479 39.903 336.28z" stroke="none" fill="#000000" fill-rule="nonzero" />
                <path d="M114.109 314.793C 112.308 310.433 107.308 308.367 102.964005 310.168L102.964005 310.168L71.416 323.233C 67.064 325.034 64.99 330.025 66.791 334.378C 68.156 337.663 71.331 339.65198 74.684 339.65198C 75.768 339.65198 76.877 339.43896 77.944 339.00397L77.944 339.00397L109.492004 325.93896C 113.845 324.137 115.918 319.145 114.109 314.793z" stroke="none" fill="#000000" fill-rule="nonzero" />
                <path d="M150.401 365.865C 147.073 362.537 141.671 362.537 138.335 365.865L138.335 365.865L90.07001 414.138C 86.73301 417.475 86.73301 422.876 90.07001 426.204C 91.73401 427.877 93.91901 428.704 96.103004 428.704C 98.288 428.704 100.47201 427.876 102.136 426.204L102.136 426.204L150.401 377.94C 153.738 374.603 153.738 369.201 150.401 365.865z" stroke="none" fill="#000000" fill-rule="nonzero" />
			</g>
		</g>
	</g>
	<g>
	</g>
	<g>
	</g>
	<g>
	</g>
	<g>
	</g>
	<g>
	</g>
	<g>
	</g>
	<g>
	</g>
	<g>
	</g>
	<g>
	</g>
	<g>
	</g>
	<g>
	</g>
	<g>
	</g>
	<g>
	</g>
	<g>
	</g>
	<g>
	</g>
</g>
</svg>